<mxfile host="app.diagrams.net" modified="2024-05-07T23:00:15.065Z" agent="Mozilla/5.0 (Windows NT 10.0; Win64; x64) AppleWebKit/537.36 (KHTML, like Gecko) Chrome/124.0.0.0 Safari/537.36" etag="ckgpYLhmo0EHQ3m9x6N8" version="24.3.1" type="device">
  <diagram name="PÃ¡gina-1" id="L9bwPV9tvqCIywYqRQCZ">
    <mxGraphModel dx="840" dy="446" grid="1" gridSize="10" guides="1" tooltips="1" connect="1" arrows="1" fold="1" page="1" pageScale="1" pageWidth="827" pageHeight="1169" math="0" shadow="0">
      <root>
        <mxCell id="0" />
        <mxCell id="1" parent="0" />
        <mxCell id="6iVXy4F3Puews5gv89W7-1" value="" style="whiteSpace=wrap;html=1;aspect=fixed;fillColor=none;" vertex="1" parent="1">
          <mxGeometry x="190" y="200" width="430" height="430" as="geometry" />
        </mxCell>
        <mxCell id="6iVXy4F3Puews5gv89W7-4" value="" style="endArrow=classic;html=1;rounded=0;exitX=1;exitY=0.5;exitDx=0;exitDy=0;entryX=0;entryY=0.5;entryDx=0;entryDy=0;" edge="1" parent="1" source="6iVXy4F3Puews5gv89W7-24" target="6iVXy4F3Puews5gv89W7-5">
          <mxGeometry width="50" height="50" relative="1" as="geometry">
            <mxPoint x="590" y="320" as="sourcePoint" />
            <mxPoint x="650" y="450" as="targetPoint" />
          </mxGeometry>
        </mxCell>
        <mxCell id="6iVXy4F3Puews5gv89W7-5" value="crear archivo authorized_keys" style="ellipse;whiteSpace=wrap;html=1;" vertex="1" parent="1">
          <mxGeometry x="460" y="230" width="120" height="80" as="geometry" />
        </mxCell>
        <mxCell id="6iVXy4F3Puews5gv89W7-12" value="asignar permisos de usuario en el servidor" style="ellipse;whiteSpace=wrap;html=1;" vertex="1" parent="1">
          <mxGeometry x="460" y="420" width="120" height="80" as="geometry" />
        </mxCell>
        <mxCell id="6iVXy4F3Puews5gv89W7-13" value="" style="endArrow=classic;html=1;rounded=0;entryX=0.5;entryY=0;entryDx=0;entryDy=0;exitX=0.5;exitY=1;exitDx=0;exitDy=0;" edge="1" parent="1" source="6iVXy4F3Puews5gv89W7-5" target="6iVXy4F3Puews5gv89W7-12">
          <mxGeometry width="50" height="50" relative="1" as="geometry">
            <mxPoint x="617.1600000000001" y="495.84000000000015" as="sourcePoint" />
            <mxPoint x="650" y="510" as="targetPoint" />
          </mxGeometry>
        </mxCell>
        <mxCell id="6iVXy4F3Puews5gv89W7-14" value="" style="endArrow=classic;html=1;rounded=0;exitX=0.5;exitY=0.5;exitDx=0;exitDy=0;exitPerimeter=0;entryX=0;entryY=0.5;entryDx=0;entryDy=0;" edge="1" parent="1" source="6iVXy4F3Puews5gv89W7-20" target="6iVXy4F3Puews5gv89W7-24">
          <mxGeometry width="50" height="50" relative="1" as="geometry">
            <mxPoint x="55" y="260" as="sourcePoint" />
            <mxPoint x="200" y="250" as="targetPoint" />
          </mxGeometry>
        </mxCell>
        <mxCell id="6iVXy4F3Puews5gv89W7-20" value="admin" style="shape=umlActor;verticalLabelPosition=bottom;verticalAlign=top;html=1;outlineConnect=0;" vertex="1" parent="1">
          <mxGeometry x="30" y="230" width="30" height="60" as="geometry" />
        </mxCell>
        <mxCell id="6iVXy4F3Puews5gv89W7-24" value="creamos ssh" style="ellipse;whiteSpace=wrap;html=1;" vertex="1" parent="1">
          <mxGeometry x="260" y="230" width="120" height="80" as="geometry" />
        </mxCell>
        <mxCell id="6iVXy4F3Puews5gv89W7-27" value="" style="endArrow=classic;html=1;rounded=0;exitX=0.5;exitY=1;exitDx=0;exitDy=0;" edge="1" parent="1" source="6iVXy4F3Puews5gv89W7-24" target="6iVXy4F3Puews5gv89W7-28">
          <mxGeometry width="50" height="50" relative="1" as="geometry">
            <mxPoint x="590" y="570" as="sourcePoint" />
            <mxPoint x="640" y="520" as="targetPoint" />
          </mxGeometry>
        </mxCell>
        <mxCell id="6iVXy4F3Puews5gv89W7-28" value="cambiamos el puerto&lt;br&gt;(443)" style="ellipse;whiteSpace=wrap;html=1;" vertex="1" parent="1">
          <mxGeometry x="260" y="410" width="120" height="80" as="geometry" />
        </mxCell>
        <mxCell id="6iVXy4F3Puews5gv89W7-29" value="extends" style="text;html=1;align=center;verticalAlign=middle;whiteSpace=wrap;rounded=0;rotation=90;" vertex="1" parent="1">
          <mxGeometry x="310" y="350" width="60" height="30" as="geometry" />
        </mxCell>
        <mxCell id="6iVXy4F3Puews5gv89W7-32" value="ubuntu 22.004" style="text;html=1;align=center;verticalAlign=middle;whiteSpace=wrap;rounded=0;" vertex="1" parent="1">
          <mxGeometry x="190" y="170" width="90" height="30" as="geometry" />
        </mxCell>
        <mxCell id="6iVXy4F3Puews5gv89W7-33" value="include" style="text;html=1;align=center;verticalAlign=middle;whiteSpace=wrap;rounded=0;" vertex="1" parent="1">
          <mxGeometry x="384" y="245" width="60" height="30" as="geometry" />
        </mxCell>
        <mxCell id="6iVXy4F3Puews5gv89W7-34" value="include" style="text;html=1;align=center;verticalAlign=middle;whiteSpace=wrap;rounded=0;rotation=90;" vertex="1" parent="1">
          <mxGeometry x="510" y="350" width="60" height="30" as="geometry" />
        </mxCell>
      </root>
    </mxGraphModel>
  </diagram>
</mxfile>
